<svg xmlns="http://www.w3.org/2000/svg" viewBox="0 0 991.14 1302"><defs><style>.cls-1{fill:#00f9f2;}.cls-2{fill:#662525;}.cls-3{fill:#196d6b;}.cls-4{fill:#c13838;}.cls-5{fill:#48ccd3;}.cls-6{fill:#c8cad6;}</style></defs><title>logo-arrowhead-no-name</title><g id="Layer_3" data-name="Layer 3"><text x="-121.23" y="-209"></text></g><g id="Layer_1" data-name="Layer 1"><g id="Layer_5" data-name="Layer 5"><path class="cls-1" d="M1591,873" transform="translate(-121.23 -209)"/></g><polygon id="shading_left_side" data-name="shading left side" class="cls-2" points="420 0 0 820 275 1161 264 820 419.77 455 420 0"/><polygon id="left_mountain" data-name="left mountain" class="cls-3" points="33.77 821 219.77 1058.15 219.77 951 161.77 951 173.77 810 33.77 821"/><polygon id="shading_left_side-2" data-name="shading left side" class="cls-4" points="419.77 0 838.35 818.48 563.57 1158.9 574.82 818.27 419.77 455 419.77 0"/><polygon class="cls-5" points="795.13 810.15 608.96 1047.16 609.03 940.01 667.03 940.05 655.14 799.04 795.13 810.15"/><polygon class="cls-6" points="132.75 813.22 132.77 840 145.77 842 145.77 856 169.85 856 173.77 810 132.75 813.22"/><polygon class="cls-6" points="696.14 802.3 696.1 829.07 683.1 831.06 683.08 845.06 659 845.05 655.12 799.04 696.14 802.3"/><polygon class="cls-3" points="424.77 840.14 355.98 706.07 424.77 572 424.77 840.14"/><polygon class="cls-5" points="424.77 840.14 493.55 706.07 424.77 572 424.77 840.14"/><path d="M1110.93,674.49a1.5,1.5,0,0,0,0-3,1.5,1.5,0,0,0,0,3Z" transform="translate(-121.23 -209)"/></g></svg>